<?xml version="1.0" encoding="UTF-8" standalone="no"?>
<!-- Created with Inkscape (http://www.inkscape.org/) -->

<svg
   xmlns:dc="http://purl.org/dc/elements/1.1/"
   xmlns:cc="http://creativecommons.org/ns#"
   xmlns:rdf="http://www.w3.org/1999/02/22-rdf-syntax-ns#"
   xmlns:svg="http://www.w3.org/2000/svg"
   xmlns="http://www.w3.org/2000/svg"
   xmlns:sodipodi="http://sodipodi.sourceforge.net/DTD/sodipodi-0.dtd"
   xmlns:inkscape="http://www.inkscape.org/namespaces/inkscape"
   id="svg3406"
   version="1.1"
   inkscape:version="0.91 r13725"
   width="289.181"
   height="499.99924"
   viewBox="0 0 289.181 499.99924"
   sodipodi:docname="silhouette-basket-07.svg">
  <title
     id="title3340">Silhouette Basket 07</title>
  <metadata
     id="metadata3412">
    <rdf:RDF>
      <cc:Work
         rdf:about="">
        <dc:format>image/svg+xml</dc:format>
        <dc:type
           rdf:resource="http://purl.org/dc/dcmitype/StillImage" />
        <dc:title>Silhouette Basket 07</dc:title>
        <cc:license
           rdf:resource="http://creativecommons.org/publicdomain/zero/1.0/" />
        <dc:date>2017-03-26</dc:date>
        <dc:creator>
          <cc:Agent>
            <dc:title>JLouis</dc:title>
          </cc:Agent>
        </dc:creator>
        <dc:rights>
          <cc:Agent>
            <dc:title>Domaine pubic</dc:title>
          </cc:Agent>
        </dc:rights>
        <dc:publisher>
          <cc:Agent>
            <dc:title>inkscape</dc:title>
          </cc:Agent>
        </dc:publisher>
        <dc:subject>
          <rdf:Bag>
            <rdf:li>silhouette</rdf:li>
            <rdf:li>Basketball</rdf:li>
            <rdf:li>player</rdf:li>
            <rdf:li>sport</rdf:li>
            <rdf:li>basket</rdf:li>
            <rdf:li>joueurs</rdf:li>
          </rdf:Bag>
        </dc:subject>
        <dc:description>Basketball player in silhouette - Joueur de basket en silhouette</dc:description>
      </cc:Work>
      <cc:License
         rdf:about="http://creativecommons.org/publicdomain/zero/1.0/">
        <cc:permits
           rdf:resource="http://creativecommons.org/ns#Reproduction" />
        <cc:permits
           rdf:resource="http://creativecommons.org/ns#Distribution" />
        <cc:permits
           rdf:resource="http://creativecommons.org/ns#DerivativeWorks" />
      </cc:License>
    </rdf:RDF>
  </metadata>
  <defs
     id="defs3410" />
  <sodipodi:namedview
     pagecolor="#ffffff"
     bordercolor="#666666"
     borderopacity="1"
     objecttolerance="10"
     gridtolerance="10"
     guidetolerance="10"
     inkscape:pageopacity="0"
     inkscape:pageshadow="2"
     inkscape:window-width="1237"
     inkscape:window-height="756"
     id="namedview3408"
     showgrid="false"
     fit-margin-top="0"
     fit-margin-left="0"
     fit-margin-right="0"
     fit-margin-bottom="0"
     inkscape:zoom="0.64571429"
     inkscape:cx="-157.03818"
     inkscape:cy="263.05362"
     inkscape:window-x="0"
     inkscape:window-y="0"
     inkscape:window-maximized="1"
     inkscape:current-layer="svg3406" />
  <g
     id="g3416"
     transform="matrix(0.82877041,0,0,0.82877041,-56.709337,-181.16343)">
    <path
       style="fill:#4361ee"
       d="m 214.55319,821.26778 c -4.8895,-1.53785 -8.01473,-4.60879 -8.92969,-8.77459 -0.60828,-2.7695 -2.11921,-4.0522 -7.25835,-6.16194 -9.32453,-3.82795 -9.93025,-4.23967 -13.16484,-8.94854 -2.68896,-3.91453 -2.88812,-5.28477 -2.47101,-17.00036 0.40941,-11.49915 0.75581,-13.06737 3.54969,-16.07012 4.17179,-4.48368 7.4879,-5.57707 13.08561,-4.31458 3.73831,0.84314 5.16886,0.61983 7.00842,-1.09399 4.93614,-4.59871 5.87349,-10.92262 6.05514,-40.8519 0.20366,-33.55455 1.68659,-55.40575 4.24522,-62.5544 1.0094,-2.82018 2.50158,-9.57018 3.31596,-15 0.81436,-5.4298 2.36369,-12.48208 3.44293,-15.67175 1.95637,-5.78196 1.95039,-5.82042 -1.98501,-12.79356 C 218.83427,607.40207 217.5,603.34135 217.5,600.01894 217.5,597.25852 217.03875,595 216.475,595 c -2.85796,0 -11.74711,-9.68503 -15.16275,-16.52031 l -3.8586,-7.72175 5.40659,-5.69148 c 9.04235,-9.51877 8.91491,-9.18678 9.07532,-23.64367 0.15936,-14.36138 1.66433,-19.2186 9.10818,-29.39636 3.32761,-4.54975 3.55023,-5.62832 3.61215,-17.5 0.069,-13.2416 2.28208,-21.77552 6.45002,-24.87253 1.13168,-0.8409 2.72053,-3.03306 3.53079,-4.87147 1.19366,-2.70832 1.13071,-3.62683 -0.33175,-4.84057 -2.56764,-2.13095 -2.23316,-7.95208 0.79832,-13.8943 2.42133,-4.74617 2.54038,-6.33677 1.7033,-22.75622 -0.56822,-11.14613 -1.51131,-18.58641 -2.55846,-20.18456 -0.91217,-1.39215 -2.235,-7.62037 -2.93962,-13.84047 -1.37709,-12.15632 -3.79559,-20.81123 -5.73265,-20.51502 -0.66047,0.101 -2.65145,3.9389 -4.42442,8.52866 -1.77296,4.58978 -4.15202,10.12288 -5.28678,12.29578 -2.17452,4.16378 -13.12807,19.7343 -19.87904,28.25811 C 192.0153,422.84675 182.16119,430 179.22585,430 c -3.33699,0 -35.15036,-16.23506 -39.83131,-20.32679 l -4.98046,-4.35353 -3.76954,2.83664 c -9.2953,6.9949 -24.22599,8.70647 -36.535149,4.18817 -8.390955,-3.08005 -20.189821,-14.07659 -23.520548,-21.92115 -2.851395,-6.71564 -2.889565,-20.7026 -0.07908,-28.97727 2.897208,-8.52998 11.58445,-17.73805 20.740237,-21.98366 8.245896,-3.82368 21.22836,-4.34579 30.39507,-1.22237 8.27107,2.81824 17.96604,11.98161 22.33146,21.10701 3.09064,6.46059 3.56725,8.85537 3.36149,16.89001 l -0.23976,9.36208 9.88837,2.78768 c 5.43861,1.53323 10.82294,2.80467 11.96517,2.82543 2.05333,0.0374 11.44597,-11.60839 20.13286,-24.96225 2.63331,-4.04805 5.59395,-11.10681 7.2001,-17.16656 3.51942,-13.27819 13.48648,-30.16883 20.52311,-34.7794 1.59027,-1.04199 6.47469,-2.46387 10.85426,-3.15973 6.89013,-1.09475 11.36729,-2.73581 19.83788,-7.27135 1.03125,-0.55217 4.48905,-2.30929 7.68403,-3.90467 6.44028,-3.21593 7.2755,-5.35694 7.30217,-18.71829 0.0127,-6.36595 -0.31022,-7.13348 -4.36124,-10.36579 -3.92993,-3.1357 -4.37497,-4.11393 -4.37497,-9.61662 0,-4.37855 0.62395,-6.59173 2.1875,-7.75922 1.52325,-1.13738 2.2715,-3.64067 2.46411,-8.24383 0.3885,-9.28428 3.21213,-14.34972 10.98194,-19.70099 13.707,-9.44036 27.99519,-9.28107 37.03763,0.4129 6.74892,7.23521 8.58747,14.66621 7.88262,31.85978 -0.67267,16.40847 -1.43337,20.91377 -3.5312,20.91377 -1.39636,0 -6.67155,12.1859 -5.60755,12.95369 1.28955,0.93054 11.85945,3.86281 12.80389,3.55201 0.60167,-0.198 2.00792,0.43191 3.125,1.3998 1.11707,0.9679 5.32784,2.77549 9.35722,4.01689 4.32813,1.33342 9.10677,3.93637 11.67729,6.36069 2.3931,2.25698 6.97131,5.80943 10.17381,7.89432 8.27486,5.38708 13.81633,12.70029 17.19856,22.69729 1.61161,4.7635 5.11785,11.88729 7.79164,15.83061 5.55488,8.19239 10.44825,17.60511 12.58394,24.20605 0.80724,2.495 2.57153,5.5353 3.92065,6.75624 1.34912,1.22094 2.45294,3.43144 2.45294,4.91224 0,1.48078 0.82586,3.78423 1.83525,5.11876 2.42151,3.20152 2.49774,17.04819 0.11913,21.64782 -3.33477,6.44873 -19.40979,17.67784 -29.62414,20.69378 -4.78981,1.41426 -5.28328,2.02325 -8.64898,10.67385 -1.96315,5.0457 -4.15705,9.7617 -4.87533,10.47999 -2.33874,2.33873 -1.39124,12.2717 1.97266,20.68013 2.9349,7.33609 5.24716,17.10169 7.57705,32.00084 0.43004,2.75 1.62214,6.29464 2.64911,7.87699 2.86261,4.41065 1.2015,26.7366 -2.7449,36.89264 -2.34961,6.04671 -3.17066,11.13347 -3.76976,23.35537 -0.42125,8.59375 -1.11451,18.29687 -1.54059,21.5625 -0.65616,5.0291 -0.45425,5.9375 1.3197,5.9375 3.75888,0 7.98069,-5.604 8.91486,-11.83347 1.26169,-8.41354 4.86212,-12.09999 12.51444,-12.81346 5.0382,-0.46973 6.97921,-0.0303 10.53241,2.38499 6.4362,4.37487 9.97372,11.44063 9.99848,19.9708 0.0239,8.21311 3.20104,16.51135 8.03401,20.98326 4.93005,4.56175 7.47498,14.7233 6.46864,25.82852 -2.01415,22.22696 -9.95091,33.36038 -21.5745,30.26402 -4.97698,-1.3258 -8.0622,-6.23628 -11.6452,-18.53466 -4.85201,-16.65423 -11.75281,-24.97957 -15.18919,-18.32475 -1.57542,3.05092 -7.30464,8.21006 -9.1982,8.28296 -0.6875,0.0265 -5.46875,2.85826 -10.625,6.29288 -13.01014,8.66615 -15.98139,9.04051 -23.43406,2.95266 C 313.65745,652.1803 310,647.80075 310,643.36391 c 0,-2.27485 -0.82586,-5.22797 -1.83525,-6.5625 -1.00938,-1.33452 -1.85312,-3.4898 -1.875,-4.7895 -0.0219,-1.2997 -1.10453,-4.6747 -2.40593,-7.5 -2.24402,-4.87172 -6.43418,-21.73867 -6.39988,-25.76191 0.0149,-1.74651 -8.43037,-9.51872 -9.30084,-8.5596 -0.21693,0.23903 -2.94033,5.4971 -6.05199,11.6846 -3.11165,6.1875 -6.83286,11.95789 -8.26934,12.82309 -1.43647,0.8652 -2.61177,2.40371 -2.61177,3.4189 0,3.46457 -7.58916,24.99179 -11.30716,32.07359 -3.53029,6.72428 -3.7345,7.96207 -4.22755,25.625 -0.53884,19.30303 -2.6155,28.37777 -8.43801,36.87306 -3.44805,5.03082 -8.87733,29.33572 -8.0121,35.86717 0.77017,5.81384 -1.19028,21.9058 -3.10536,25.48973 -2.03008,3.79916 -0.90357,14.33074 3.30024,30.85357 2.00911,7.89667 0.68486,12.24112 -4.47145,14.66947 -4.36913,2.05762 -16.17479,3.03926 -20.43542,1.6992 z"
       id="path3430"
       inkscape:connector-curvature="0" />
    <path
       style="fill:#4361ee"
       d="m 215.17424,821.27853 c -5.14204,-1.24774 -7.74527,-3.72227 -9.47729,-9.00876 -1.11756,-3.41099 -2.52829,-4.49447 -9.12449,-7.00783 -10.12974,-3.85978 -13.18256,-7.96249 -13.86175,-18.62899 -0.71712,-11.2622 0.67643,-18.5099 4.41278,-22.95029 3.04925,-3.62384 3.64692,-3.81015 11.14248,-3.47353 6.68453,0.30019 8.2013,-0.0284 9.72058,-2.10618 3.51065,-4.80109 4.33029,-11.51887 4.42019,-36.22795 0.13962,-38.37309 1.17088,-53.52074 4.51035,-66.25 1.62325,-6.1875 3.30735,-14.34375 3.74242,-18.125 0.43506,-3.78125 1.6733,-9.47046 2.75163,-12.64267 1.9504,-5.7377 1.94012,-5.80548 -1.97528,-13.03449 -2.30216,-4.2505 -3.94229,-9.12034 -3.95134,-11.73231 -0.0129,-3.7195 -0.74395,-4.93742 -4.37592,-7.29013 -5.39726,-3.49623 -10.80096,-10.8082 -13.07129,-17.68732 l -1.72031,-5.2126 5.65832,-5.88774 c 8.93612,-9.29841 9.63435,-10.74966 8.26382,-17.1757 -1.37749,-6.45859 0.2149,-19.04028 3.24606,-25.64761 1.0886,-2.37294 3.85831,-6.83929 6.15492,-9.92524 3.82484,-5.13943 4.09047,-6.06683 3.16163,-11.03865 C 222.98772,490.51555 227.36446,470 231.25,470 c 0.65219,0 2.03919,-1.65029 3.08222,-3.66729 1.7225,-3.33094 1.69678,-4.01553 -0.2804,-7.46412 -2.08845,-3.64269 -2.07536,-4.03931 0.32247,-9.77021 2.18898,-5.23174 2.45387,-8.27823 2.13348,-24.53729 -0.25718,-13.05183 -0.87492,-19.36149 -2.08043,-21.25 -0.94305,-1.47735 -2.05634,-6.23274 -2.47397,-10.56754 -1.45738,-15.1268 -4.7636,-26.73673 -6.95995,-24.44025 -0.56373,0.58944 -2.77823,5.64937 -4.92111,11.24431 -5.49961,14.35922 -24.00727,40.13975 -33.19576,46.24057 -4.67268,3.10248 -7.46448,4.1937 -9.26626,3.62182 -7.58265,-2.40664 -31.59837,-14.77564 -37.04,-19.077 l -6.28553,-4.96842 -4.32987,2.97848 c -15.26938,10.50369 -36.01663,8.25824 -49.648221,-5.37335 -9.011682,-9.01168 -11.494827,-14.86265 -11.529217,-27.166 -0.02343,-8.37903 0.526338,-10.98165 3.743683,-17.723 6.99622,-14.65926 21.061229,-22.6519 37.952665,-21.56715 11.07294,0.7111 17.09479,3.47658 25.27146,11.6057 8.29798,8.24972 12.1224,17.90832 11.54405,29.15452 -0.47075,9.15392 -0.8193,8.81348 12.47138,12.18121 6.54883,1.65941 9.71401,1.9501 11.17807,1.02659 1.12331,-0.70857 6.67973,-7.71617 12.34758,-15.57244 7.2391,-10.03421 10.75647,-16.14369 11.82201,-20.53414 2.90456,-11.96805 6.10502,-19.6087 11.8049,-28.18255 7.40027,-11.1316 10.99751,-13.6078 21.97906,-15.12961 6.00478,-0.83213 10.7409,-2.39853 14.79555,-4.89338 3.28,-2.0182 6.42026,-3.66946 6.97836,-3.66946 0.55812,0 3.11743,-0.98437 5.68737,-2.1875 5.41767,-2.5363 6.14641,-4.74084 6.14641,-18.59375 0,-5.57971 -0.51586,-9.21875 -1.30681,-9.21875 -0.71875,0 -2.6875,-1.38069 -4.375,-3.06819 -3.98733,-3.98731 -4.25347,-11.99654 -0.5226,-15.7274 1.40008,-1.40009 2.20564,-3.09567 1.79011,-3.76799 -0.41551,-0.67232 -0.10075,-4.44867 0.6994,-8.39191 2.67621,-13.18817 14.97796,-22.0595 30.6872,-22.12987 7.80585,-0.035 9.38979,0.37412 13.45572,3.47537 4.49422,3.4279 9.75549,12.07878 11.16617,18.35999 0.386,1.71875 0.2975,10.36295 -0.19668,19.20932 -0.72357,12.95285 -1.30954,16.38489 -3.00975,17.62812 -2.19729,1.60668 -5.88776,9.31611 -5.88776,12.29955 0,1.71125 9.00015,5.32267 12.42837,4.98705 0.99185,-0.0971 3.17709,0.90401 4.85608,2.22471 1.67897,1.32069 4.34989,2.40125 5.93535,2.40125 1.58546,0 3.2303,0.5625 3.6552,1.25 0.4249,0.6875 1.754,1.25 2.95356,1.25 1.19956,0 4.11949,2.01804 6.48873,4.48454 2.36923,2.46648 6.31193,5.51803 8.76153,6.7812 9.01647,4.64941 16.84322,14.80357 19.7601,25.63607 0.74239,2.75701 4.34794,9.7851 8.01234,15.61798 3.66439,5.83286 8.19251,14.19096 10.06249,18.57353 1.86996,4.38258 4.51061,9.38032 5.8681,11.10608 1.35747,1.72576 2.46815,4.07937 2.46815,5.23026 0,1.15089 0.82586,3.1844 1.83525,4.51893 2.81452,3.72113 2.50683,17.42576 -0.5002,22.27887 -3.94983,6.3747 -17.75734,15.95868 -28.01438,19.44515 -5.95488,2.02414 -6.55532,2.61859 -9.02528,8.93539 -1.4553,3.72185 -3.86087,9.40801 -5.3457,12.63592 -3.15602,6.86093 -3.41068,11.25893 -0.87595,15.1274 2.54883,3.89003 6.34122,16.9592 8.77895,30.25368 1.13457,6.1875 2.95073,13.3504 4.03593,15.91756 2.60829,6.17023 1.33119,24.71052 -2.38316,34.59745 -1.70825,4.54704 -2.94546,11.78411 -3.54474,20.73499 -0.50632,7.5625 -1.3398,17.82812 -1.85217,22.8125 -0.8714,8.47716 -0.77375,9.0625 1.51205,9.0625 3.92901,0 7.5165,-5.07841 9.10944,-12.89521 1.23432,-6.05705 2.1418,-7.6728 5.43825,-9.68283 12.24135,-7.46421 27.08171,4.14901 27.08171,21.1926 0,7.62664 2.3482,13.83384 7.41761,19.60759 2.02173,2.30261 4.65733,7.30011 5.85688,11.10555 1.89692,6.0177 1.99705,8.2939 0.76873,17.4742 -2.51463,18.7942 -8.58736,28.1981 -18.2094,28.1981 -6.84873,0 -10.89253,-5.65349 -15.13998,-21.16664 -2.56857,-9.38127 -6.99827,-16.97913 -10.42102,-17.8742 -1.68182,-0.43981 -3.42336,0.63969 -5.76356,3.57257 -1.84442,2.31153 -5.16042,5.10966 -7.36887,6.21802 -2.20847,1.10838 -7.75025,4.51216 -12.31509,7.56396 -4.56484,3.05182 -10.18984,5.82895 -12.5,6.17144 -3.71858,0.55127 -5.18958,-0.22646 -12.82614,-6.78141 -9.15621,-7.85935 -11.88325,-11.5555 -11.95486,-16.20332 -0.0244,-1.58101 -0.80771,-4.39351 -1.74078,-6.25 -0.93306,-1.85648 -2.06475,-5.30726 -2.51485,-7.6684 -0.4501,-2.36113 -1.58147,-5.17363 -2.51415,-6.25 -0.93268,-1.07636 -2.03918,-4.20702 -2.4589,-6.95702 -2.13927,-14.01679 -3.93797,-19.03785 -8.05591,-22.48808 -2.26341,-1.8964 -4.3006,-3.23738 -4.52707,-2.97996 -0.22648,0.25743 -2.8393,5.15069 -5.80628,10.87393 -2.96696,5.72324 -6.60861,11.36092 -8.09254,12.52817 -1.58655,1.24799 -3.36175,4.88888 -4.30908,8.83785 -0.88608,3.69355 -2.37567,8.18088 -3.31019,9.97181 -0.93454,1.79095 -1.70261,4.34472 -1.70685,5.67504 -0.004,1.33031 -2.02966,6.32593 -4.50095,11.10135 -4.45025,8.5995 -4.49703,8.85145 -4.88818,26.33124 -0.42448,18.96889 -1.77676,25.07827 -8.05666,36.39865 -4.39061,7.91467 -9.34664,30.10351 -8.32565,37.27511 0.42693,2.99887 -0.12869,9.48533 -1.30414,15.22489 -2.49827,12.19879 -2.6249,19.6299 -0.54317,31.875 3.95749,23.27868 3.86344,23.46265 -13.01395,25.45703 -2.75,0.32496 -6.89034,0.13213 -9.20076,-0.4285 z"
       id="path3428"
       inkscape:connector-curvature="0" />
    <path
       style="fill:#4361ee"
       d="m 216.20754,821.33271 c -6.19682,-1.19431 -7.35998,-2.14783 -9.92794,-8.13866 -1.67091,-3.89808 -3.3619,-5.68901 -6.45905,-6.84081 -14.37015,-5.34415 -17.32519,-9.35353 -17.31358,-23.49094 0.009,-10.67178 1.639,-16.6242 5.56252,-20.31015 2.75982,-2.59271 3.83033,-2.80155 10.49575,-2.04744 l 7.42247,0.83975 2.63283,-4.25997 c 3.47451,-5.62189 3.74555,-8.84212 4.38387,-52.08449 0.53579,-36.29608 0.60479,-37.10771 4.39496,-51.69746 2.11785,-8.15235 3.84784,-16.58985 3.84444,-18.75 -0.004,-2.16014 0.90861,-6.48023 2.0267,-9.60019 2.02694,-5.6561 2.02149,-5.6952 -1.86882,-13.40185 -2.14593,-4.25106 -3.90169,-9.65844 -3.90169,-12.01639 0,-3.56191 -0.72879,-4.71716 -4.30798,-6.82893 -5.24672,-3.09565 -10.83878,-10.57479 -13.15575,-17.59527 l -1.72135,-5.21575 6.30968,-6.50957 c 8.32411,-8.58784 9.03385,-10.1093 7.63015,-16.3567 -2.07828,-9.24976 1.95521,-28.23268 6.61756,-31.14436 1.30773,-0.81669 2.37769,-2.13102 2.37769,-2.92073 0,-0.78971 1.03532,-2.71441 2.30072,-4.27712 1.88667,-2.32993 2.11503,-3.83534 1.26887,-8.36463 -1.977,-10.5824 2.21101,-28.91411 7.02793,-30.76254 3.50264,-1.34408 4.5614,-6.57855 2.1732,-10.74412 -2.04885,-3.57366 -2.03288,-4.0123 0.35357,-9.71601 2.19022,-5.2347 2.4538,-8.2758 2.13147,-24.59205 -0.27246,-13.79234 -0.83931,-19.29187 -2.18678,-21.21564 -1.00044,-1.42833 -1.81898,-4.96628 -1.81898,-7.8621 0,-6.57679 -3.1878,-22.00798 -5.43081,-26.28892 -1.64358,-3.13688 -1.79653,-2.92673 -6.26704,8.61102 -6.22528,16.06653 -24.30195,41.64775 -33.96245,48.06195 -4.64374,3.08327 -7.42886,4.16883 -9.22941,3.59736 -7.58265,-2.40664 -31.59837,-14.77564 -37.04,-19.077 l -6.28553,-4.96843 -4.32987,2.97849 c -15.26938,10.50369 -36.01663,8.25824 -49.648221,-5.37335 -9.011682,-9.01168 -11.494827,-14.86265 -11.529217,-27.166 -0.02343,-8.37904 0.526338,-10.98165 3.743683,-17.723 6.99622,-14.65926 21.061229,-22.6519 37.952665,-21.56715 11.07294,0.7111 17.09479,3.47658 25.27146,11.6057 8.29798,8.24971 12.1224,17.90831 11.54405,29.15451 -0.47075,9.15393 -0.8193,8.81349 12.47138,12.18122 6.54883,1.65941 9.71401,1.9501 11.17807,1.02659 1.12332,-0.70857 6.67973,-7.71617 12.34758,-15.57244 7.2391,-10.03421 10.75647,-16.14369 11.82201,-20.53414 2.90456,-11.96805 6.10502,-19.6087 11.8049,-28.18255 7.40027,-11.1316 10.99751,-13.6078 21.97906,-15.12961 6.00478,-0.83213 10.7409,-2.39853 14.79555,-4.89338 3.28,-2.0182 6.42026,-3.66946 6.97836,-3.66946 0.55812,0 3.11743,-0.98437 5.68737,-2.1875 5.41767,-2.5363 6.14641,-4.74084 6.14641,-18.59375 0,-5.57971 -0.51586,-9.21875 -1.30681,-9.21875 -0.71875,0 -2.6875,-1.38069 -4.375,-3.06819 -3.98733,-3.98731 -4.25347,-11.99654 -0.5226,-15.7274 1.40008,-1.40009 2.20564,-3.09567 1.79011,-3.76799 -1.5826,-2.56072 2.14285,-15.10973 5.68248,-19.14115 8.84298,-10.07161 24.75977,-14.47222 35.36979,-9.77889 6.3262,2.79837 12.45368,10.78511 14.54964,18.96439 1.77309,6.91937 -0.25055,36.24197 -2.62101,37.97855 -2.50499,1.83514 -6.0666,8.75144 -6.0666,11.78074 0,1.68163 1.53381,2.85468 5.3125,4.06298 2.92187,0.93432 6.30899,1.79088 7.52691,1.90348 1.21793,0.11263 3.23097,1.12469 4.47343,2.2491 1.24246,1.1244 3.7284,2.04438 5.52431,2.04438 1.79592,0 3.61295,0.5625 4.03785,1.25 0.4249,0.6875 1.754,1.25 2.95356,1.25 1.19956,0 4.11949,2.01804 6.48873,4.48454 2.36924,2.46648 6.31194,5.51803 8.76153,6.7812 9.01647,4.64941 16.84322,14.80357 19.76011,25.63607 0.74238,2.75701 4.34793,9.7851 8.01233,15.61798 3.66439,5.83286 8.19252,14.19096 10.06249,18.57353 1.86996,4.38258 4.51061,9.38032 5.8681,11.10608 1.35748,1.72576 2.46815,4.07937 2.46815,5.23026 0,1.15089 0.82586,3.1844 1.83525,4.51893 2.81453,3.72113 2.50683,17.42576 -0.5002,22.27887 -3.94284,6.36343 -17.75661,15.95843 -27.97615,19.43216 -6.24304,2.12208 -6.40011,2.3027 -10.16248,11.68685 -2.10178,5.2423 -4.52455,10.23393 -5.38392,11.09249 -1.80431,1.80263 -2.12384,11.81658 -0.41083,12.87528 1.63827,1.0125 7.27787,18.67051 8.80233,27.56076 2.21455,12.91459 3.30569,17.40217 4.99532,20.54459 2.35039,4.37125 0.75119,24.53942 -2.66795,33.64667 -1.73518,4.62188 -2.96787,11.8056 -3.57065,20.80874 -0.50632,7.5625 -1.3398,17.82812 -1.85217,22.8125 -0.8714,8.47716 -0.77375,9.0625 1.51205,9.0625 3.91505,0 7.75011,-5.22704 9.11482,-12.42316 0.69552,-3.66744 1.26458,-6.82666 1.26458,-7.0205 0,-0.19384 1.89452,-1.52332 4.21004,-2.95439 12.30351,-7.60399 27.03996,3.84764 27.03996,21.01261 0,7.64619 2.34937,13.83518 7.46257,19.65879 5.98272,6.81392 8.096,16.23119 6.46964,28.83011 -2.32537,18.01405 -8.57686,27.89654 -17.64685,27.89654 -7.14784,0 -11.37148,-5.73323 -15.59344,-21.16664 -2.56591,-9.37974 -6.99557,-16.97892 -10.4191,-17.8742 -1.68257,-0.44001 -3.42491,0.64163 -5.77212,3.5833 -1.84914,2.31745 -5.48973,5.29899 -8.09019,6.62565 -2.60046,1.32665 -8.05977,4.62486 -12.13181,7.32935 -4.07204,2.70449 -9.22635,5.31743 -11.45404,5.80654 -3.67187,0.8062 -4.90884,0.17916 -13.23845,-6.71086 -9.18717,-7.59937 -12.04727,-11.54027 -12.13051,-16.71445 -0.0243,-1.51453 -0.84818,-4.15994 -1.8307,-5.87869 -0.98253,-1.71875 -1.80635,-4.59601 -1.8307,-6.39392 -0.0244,-1.79792 -1.09449,-4.61042 -2.37805,-6.25 -1.28356,-1.63959 -2.62106,-4.94983 -2.97223,-7.35608 -2.14287,-14.68348 -3.72852,-19.41746 -7.62405,-22.7617 -2.16973,-1.86269 -4.28578,-3.40956 -4.70233,-3.4375 -0.41655,-0.028 -3.135,4.72625 -6.04099,10.56487 -2.906,5.83863 -6.55651,11.61694 -8.11225,12.84069 -1.72498,1.35685 -3.45723,4.84524 -4.43966,8.94055 -0.88608,3.69355 -2.37567,8.18088 -3.31019,9.97182 -0.93454,1.79094 -1.70261,4.33456 -1.70685,5.65246 -0.004,1.31791 -2.09915,6.09916 -4.65538,10.625 -4.44643,7.87249 -4.63682,8.68888 -4.39702,18.85381 0.42778,18.1325 -1.70024,30.45295 -7.22367,41.82275 -5.71643,11.76701 -10.49929,31.39694 -9.49863,38.98441 0.3759,2.85019 -0.22062,9.60019 -1.32561,15 -2.49354,12.18544 -2.65304,22.23313 -0.53289,33.56784 3.81146,20.37665 3.20196,22.3897 -7.20596,23.80008 -3.18644,0.43178 -6.63729,0.94796 -7.66854,1.14705 -1.03125,0.19908 -3.86285,-0.0211 -6.29246,-0.48942 z"
       id="path3426"
       inkscape:connector-curvature="0" />
    <path
       style="fill:#4361ee"
       d="m 211.03877,819.41656 c -1.88573,-1.06844 -3.97717,-3.83239 -4.81046,-6.35729 -1.03206,-3.12714 -2.65587,-4.96103 -5.41377,-6.11411 -12.61009,-5.27227 -13.27665,-5.7205 -15.76733,-10.60262 -1.82582,-3.5789 -2.54523,-7.39662 -2.54024,-13.48024 0.009,-10.67178 1.63901,-16.6242 5.56252,-20.31015 2.75982,-2.59271 3.83033,-2.80155 10.49575,-2.04744 l 7.42247,0.83975 2.63283,-4.25997 c 3.46522,-5.60687 3.7327,-8.76357 4.41321,-52.08449 0.56777,-36.14433 0.65493,-37.1677 4.39775,-51.64698 2.10018,-8.12458 3.8185,-16.86502 3.8185,-19.4232 0,-2.55817 1.03751,-6.68623 2.30558,-9.17347 l 2.30558,-4.52226 -4.18058,-8.30084 C 219.38126,607.36779 217.5,601.76486 217.5,599.48231 c 0,-3.45548 -0.83506,-4.70271 -4.98932,-7.45187 -5.42775,-3.59191 -10.07751,-9.97663 -12.64033,-17.35679 l -1.63259,-4.70135 6.34826,-6.54865 c 8.36508,-8.62912 9.07348,-10.1437 7.66873,-16.39576 -2.07827,-9.24976 1.95521,-28.23268 6.61756,-31.14436 1.30773,-0.81669 2.37769,-2.13102 2.37769,-2.92073 0,-0.78971 1.028,-2.70536 2.28444,-4.257 1.86581,-2.30417 2.11057,-3.92104 1.33569,-8.82297 -0.97802,-6.18687 0.22041,-18.12982 2.37145,-23.63283 0.67183,-1.71875 2.47562,-4.25 4.00842,-5.625 4.39809,-3.94531 5.23493,-7.51247 2.77073,-11.81061 -2.04886,-3.57366 -2.03289,-4.0123 0.35356,-9.71601 2.19022,-5.2347 2.4538,-8.2758 2.13147,-24.59205 -0.27246,-13.79234 -0.83931,-19.29187 -2.18678,-21.21564 -1.00044,-1.42833 -1.81898,-4.96628 -1.81898,-7.8621 0,-6.60011 -3.19066,-22.01344 -5.44928,-26.32415 -1.66817,-3.18384 -1.79833,-3.00497 -6.33722,8.70927 -6.2745,16.19359 -24.1761,41.56003 -33.8738,47.99893 -4.64374,3.08327 -7.42886,4.16883 -9.22941,3.59736 -7.53782,-2.3924 -31.5858,-14.76461 -36.99488,-19.03313 l -6.24041,-4.92453 -5.44461,3.44858 c -15.56488,9.85869 -35.232966,7.45954 -48.623721,-5.93121 -9.011682,-9.01169 -11.494827,-14.86265 -11.529217,-27.166 -0.02327,-8.32662 0.531703,-10.98989 3.64669,-17.5 4.302299,-8.99151 11.713205,-15.75521 21.538808,-19.65776 8.08426,-3.21093 22.63931,-2.90108 30.06878,0.64011 7.59416,3.61969 15.57981,11.54764 19.33558,19.19589 2.86345,5.83111 3.5388,8.94991 3.67709,16.98084 0.11362,6.59984 0.70765,10.17045 1.80473,10.84847 3.73284,2.30704 20.18893,5.36925 22.16282,4.12415 1.09245,-0.6891 6.66798,-7.77801 12.39003,-15.75313 8.97215,-12.50494 10.74511,-15.84578 12.88453,-24.27875 4.13036,-16.28064 13.92785,-32.33377 22.29138,-36.52427 2.50091,-1.25306 7.78091,-2.64336 11.73334,-3.08955 4.71958,-0.5328 9.27212,-2.09472 13.26325,-4.55048 3.34236,-2.05658 6.53365,-3.73923 7.09174,-3.73923 0.55812,0 3.11743,-0.98437 5.68737,-2.1875 5.41767,-2.5363 6.14641,-4.74084 6.14641,-18.59375 0,-5.57971 -0.51586,-9.21875 -1.30681,-9.21875 -0.71875,0 -2.6875,-1.38069 -4.375,-3.06819 -4.01506,-4.01505 -4.25358,-11.99642 -0.47154,-15.77846 1.42815,-1.42815 2.28204,-3.41649 1.89753,-4.41853 -1.32424,-3.45091 1.95685,-14.37678 5.54447,-18.46286 5.02103,-5.71863 15.08771,-10.83662 22.9009,-11.64301 12.67449,-1.30813 23.41092,6.97951 27.01305,20.85182 1.7333,6.6752 -0.38254,36.32744 -2.71404,38.03562 -2.43928,1.78715 -5.98856,8.73549 -5.98856,11.72367 0,1.68163 1.53381,2.85468 5.3125,4.06298 2.92187,0.93432 6.30899,1.79089 7.52691,1.90348 1.21793,0.11263 3.23097,1.12469 4.47343,2.24911 1.24246,1.1244 3.7284,2.04437 5.52431,2.04437 1.79592,0 3.61295,0.5625 4.03785,1.25 0.4249,0.6875 1.754,1.25 2.95356,1.25 1.19956,0 4.11949,2.01674 6.48873,4.48165 2.36924,2.4649 5.99521,5.33858 8.05771,6.38593 9.14171,4.64222 17.60182,15.4052 20.46393,26.03423 0.74238,2.75701 4.34793,9.7851 8.01233,15.61798 3.66439,5.83286 8.19252,14.19096 10.06249,18.57353 1.86996,4.38258 4.51061,9.38032 5.8681,11.10608 1.35748,1.72576 2.46815,4.07938 2.46815,5.23026 0,1.15089 0.82586,3.1844 1.83525,4.51893 2.81453,3.72113 2.50683,17.42576 -0.5002,22.27887 -4.04374,6.52627 -19.02964,16.79665 -28.65799,19.64038 -3.86196,1.14062 -5.81797,2.54034 -6.71902,4.8081 -0.69909,1.75949 -3.1694,7.21501 -5.48957,12.1234 -4.06737,8.6047 -5.46355,17.03362 -3.0668,18.5149 1.45848,0.90137 7.22804,18.4363 8.24583,25.06076 1.28749,8.37994 3.34867,17.22461 5.3121,22.79456 2.43765,6.91527 1.18182,22.66045 -2.76806,34.70544 -1.90998,5.82437 -3.12992,13.34742 -3.6486,22.5 -0.42859,7.5625 -1.1417,17.26562 -1.5847,21.5625 -0.74289,7.20554 -0.61468,7.8125 1.65026,7.8125 3.9264,0 7.7607,-5.21906 9.12692,-12.42316 0.69552,-3.66744 1.26458,-6.82666 1.26458,-7.0205 0,-0.19384 1.89452,-1.52332 4.21004,-2.95439 12.55141,-7.7572 27.03996,3.84182 27.03996,21.64726 0,7.26828 3.51411,16.5685 7.03766,18.62541 2.49692,1.4576 5.27163,7.36304 6.79324,14.4581 2.917,13.60153 -3.53547,36.7611 -11.37087,40.81295 -10.10425,5.22512 -17.27957,-0.92156 -21.18234,-18.14567 -1.93395,-8.53506 -6.84203,-17.31925 -10.4376,-18.68064 -2.20803,-0.83601 -3.37964,-0.23137 -6.2735,3.2376 -1.95713,2.34608 -5.6567,5.33606 -8.2213,6.64443 -2.56459,1.30835 -7.99455,4.59158 -12.06659,7.29607 -4.07204,2.70449 -9.22635,5.31743 -11.45404,5.80654 -3.67187,0.8062 -4.90884,0.17916 -13.23845,-6.71086 -9.21287,-7.62063 -12.07956,-11.58254 -12.09391,-16.71445 -0.004,-1.51453 -0.84799,-4.36487 -1.875,-6.33408 -1.02701,-1.96921 -1.8673,-5.1164 -1.8673,-6.99376 0,-1.87736 -1.125,-4.43149 -2.5,-5.67585 -1.375,-1.24436 -2.5,-3.51254 -2.5,-5.0404 0,-1.52786 -0.92336,-6.92506 -2.0519,-11.99376 -1.6374,-7.35412 -2.83686,-9.9 -5.9375,-12.60254 -2.13709,-1.86269 -4.20343,-3.40956 -4.59188,-3.4375 -0.38844,-0.028 -3.19978,4.79932 -6.24741,10.72725 -3.04762,5.92794 -6.72114,11.70624 -8.16335,12.84069 -1.50614,1.18472 -3.30788,4.9209 -4.23322,8.77817 -0.88608,3.69355 -2.37567,8.18088 -3.31019,9.97181 -0.93454,1.79095 -1.70261,4.33457 -1.70685,5.65247 -0.004,1.31791 -2.09915,6.09916 -4.65538,10.625 -4.44643,7.87249 -4.63682,8.68888 -4.39702,18.85381 0.42959,18.20958 -1.69591,30.45154 -7.26704,41.85487 -5.74341,11.75603 -10.4782,31.25514 -9.4584,38.95229 0.37762,2.85019 -0.21748,9.60019 -1.32247,15 -2.4966,12.20038 -2.65315,22.24801 -0.52304,33.56784 3.06891,16.30872 3.08836,18.55974 0.1831,21.18896 -3.58832,3.24739 -21.56667,4.16405 -26.52867,1.3526 z"
       id="path3424"
       inkscape:connector-curvature="0" />
    <path
       style="fill:#4361ee"
       d="m 210.96689,819.3789 c -2.0337,-1.15045 -3.82428,-3.55638 -4.44005,-5.96593 -1.03973,-4.06846 -2.72188,-5.26027 -14.29213,-10.12606 -3.18416,-1.33907 -5.43962,-3.51823 -7.1875,-6.94437 -4.87901,-9.56365 -2.59581,-29.36817 4.01648,-34.83914 1.274,-1.05409 4.73363,-1.49155 9.8856,-1.25 l 7.92571,0.3716 2.7697,-5.625 c 2.5981,-5.27653 2.78027,-7.40612 2.94051,-34.375 0.21215,-35.70509 1.62844,-57.05854 4.26975,-64.375 1.11686,-3.09375 2.87468,-11.25 3.90624,-18.125 1.03157,-6.875 2.62972,-13.65605 3.55146,-15.069 1.47755,-2.26498 1.1736,-3.5663 -2.5684,-10.9963 -2.33434,-4.63501 -4.24426,-10.2613 -4.24426,-12.50288 0,-3.37546 -0.91458,-4.72022 -5.32405,-7.82831 -5.15999,-3.6371 -13.42595,-16.45567 -13.42595,-20.82054 0,-1.02688 2.26637,-3.91459 5.03639,-6.41713 7.98678,-7.21559 9.81855,-11.03966 8.54736,-17.84398 -1.86894,-10.00394 2.48766,-29.44745 6.98481,-31.17317 1.06229,-0.40764 1.93144,-1.44888 1.93144,-2.31385 0,-0.86498 1.07415,-2.93825 2.387,-4.60728 2.04475,-2.59947 2.22135,-3.92132 1.2316,-9.21913 -0.63546,-3.40152 -0.77715,-7.03368 -0.31485,-8.07149 0.4623,-1.03781 0.71179,-2.65704 0.55443,-3.59827 -0.65519,-3.91876 2.77732,-13.83817 5.74291,-16.59608 4.77907,-4.44441 5.6817,-7.87225 3.20795,-12.18253 -2.01834,-3.51675 -1.98358,-3.9707 0.8225,-10.74087 2.7852,-6.71978 2.88487,-7.94446 2.018,-24.79406 -0.56721,-11.02529 -1.57104,-19.00099 -2.65573,-21.10055 -0.9591,-1.85649 -1.75212,-5.79399 -1.76229,-8.75 -0.0221,-6.42322 -3.04168,-19.84855 -5.51602,-24.5245 -1.66675,-3.14983 -1.82754,-3.20064 -2.68974,-0.85008 -5.507,15.0134 -9.47981,22.98703 -16.482,33.08023 -12.2537,17.6629 -15.16257,20.99961 -21.94544,25.17316 l -6.16488,3.79329 -6.40423,-2.75208 c -13.92906,-5.98574 -26.74119,-12.7691 -32.61939,-17.27031 l -6.17305,-4.72699 -5.8275,3.62258 c -16.83935,10.46791 -38.753248,6.2473 -52.011954,-10.01751 -6.193192,-7.59735 -7.880876,-12.83207 -7.890345,-24.47366 -0.02697,-33.15939 40.128129,-50.47967 65.419199,-28.21757 8.56067,7.53539 12.66454,16.89507 12.84208,29.28886 l 0.14325,10 8.60675,2.85317 c 12.17816,4.0371 15.01144,3.47754 20.77552,-4.10317 13.946,-18.34124 17.3861,-24.37331 20.46825,-35.89033 2.36807,-8.84868 4.63254,-13.80275 9.98859,-21.8524 7.79773,-11.71926 10.88006,-13.84366 22.46688,-15.48456 4.33749,-0.61426 9.74735,-2.24421 12.02192,-3.6221 4.04521,-2.45051 5.58255,-3.20484 15.00474,-7.3624 2.54054,-1.12101 4.92348,-3.16321 5.29543,-4.53821 1.24821,-4.61423 0.77081,-23.125 -0.59639,-23.125 -0.71875,0 -2.6875,-1.38069 -4.375,-3.06819 -4.05368,-4.05366 -4.26108,-11.97307 -0.4076,-15.56314 1.58259,-1.47441 2.35142,-3.28441 1.89752,-4.46722 -1.3793,-3.59441 1.81595,-14.45576 5.48054,-18.62949 1.94658,-2.21702 6.403,-5.58962 9.90318,-7.49465 13.91623,-7.57416 27.84426,-5.07616 35.0501,6.28628 5.56516,8.77533 6.12451,12.20055 4.99781,30.60398 -0.7818,12.76998 -1.4654,16.90598 -2.97688,18.01119 -2.46206,1.8003 -7.19471,12.1829 -6.01431,13.19431 1.62746,1.39445 11.53425,4.87693 13.87369,4.87693 1.27691,0 3.0219,0.84375 3.87776,1.875 0.85586,1.03125 3.14154,1.875 5.07929,1.875 1.93774,0 3.87081,0.5625 4.29571,1.25 0.4249,0.6875 1.79889,1.25 3.05331,1.25 1.25444,0 4.21413,2.13997 6.5771,4.75551 2.36298,2.61553 6.05664,5.48466 8.20815,6.37584 6.40709,2.6539 15.85112,13.64617 18.38764,21.4021 2.83265,8.66137 4.69126,12.38282 11.22048,22.46655 2.89351,4.46875 6.52986,11.21875 8.08076,15 1.5509,3.78125 4.17606,8.97231 5.8337,11.5357 1.65762,2.56339 3.01386,5.409 3.01386,6.32359 0,0.91458 0.82586,2.75477 1.83525,4.0893 2.54561,3.36561 2.44915,15.92242 -0.16464,21.43057 -2.53707,5.34648 -17.418,16.0699 -27.61233,19.89788 -6.88482,2.58523 -7.14729,2.8609 -10.42247,10.94626 -1.84787,4.56182 -4.26563,9.67675 -5.3728,11.36649 -2.45346,3.74446 -2.62337,11.71438 -0.32126,15.06957 2.08155,3.03374 6.57424,16.94645 7.65824,23.71564 1.53054,9.55765 3.38424,17.53094 5.29946,22.79456 2.55249,7.015 1.25369,22.77248 -2.86834,34.79941 -2.02853,5.91874 -3.04663,11.70705 -3.07806,17.5 -0.0258,4.76082 -0.75772,14.42165 -1.62645,21.46853 -1.50055,12.17197 -1.46475,12.8125 0.71593,12.8125 4.56895,0 8.23213,-3.69583 9.06247,-9.1432 1.30699,-8.57443 3.10065,-11.8009 7.80006,-14.03091 5.01302,-2.37884 10.9287,-1.88909 15.80933,1.30882 4.91079,3.21768 9.53561,13.66251 9.53561,21.53551 0,6.84522 3.6201,16.20937 7.03766,18.2044 2.50307,1.46119 5.27273,7.36817 6.80515,14.51365 2.87769,13.41817 -3.63932,36.7531 -11.38278,40.7574 -10.10425,5.22512 -17.27957,-0.92156 -21.18234,-18.14567 -1.8674,-8.24135 -6.59166,-16.9111 -10.29514,-18.89314 -2.37629,-1.27175 -3.11842,-0.90382 -6.38152,3.16371 -2.03088,2.53157 -6.0063,5.77924 -8.83427,7.21708 -2.82797,1.43782 -8.23551,4.70991 -12.01676,7.2713 -9.29599,6.29704 -13.51359,7.11875 -18.20701,3.5473 -13.07493,-9.94932 -18.02218,-15.91706 -18.03475,-21.75484 -0.005,-2.10297 -0.8341,-4.91547 -1.84349,-6.25 -1.00937,-1.33452 -1.85312,-4.16736 -1.875,-6.29517 -0.023,-2.2409 -1.09169,-4.82075 -2.53975,-6.13124 -1.375,-1.24436 -2.5,-3.51254 -2.5,-5.0404 0,-1.52786 -0.90841,-6.92506 -2.01869,-11.99376 -1.70266,-7.77314 -2.71591,-9.82011 -6.47252,-13.07586 l -4.45385,-3.86002 -5.42525,10.73502 c -2.98389,5.90426 -6.7424,11.90585 -8.35225,13.33685 -1.70768,1.51796 -3.59078,5.36872 -4.52038,9.24373 -0.87635,3.65304 -2.35798,8.10723 -3.29251,9.89817 -0.93454,1.79094 -1.70261,4.33456 -1.70685,5.65246 -0.004,1.31791 -2.05464,6.09916 -4.55645,10.625 l -4.54874,8.22881 -0.3268,17.5 c -0.34832,18.6527 -2.41755,27.93313 -8.63995,38.75 -3.93938,6.84815 -8.67577,28.27917 -7.74716,35.05409 0.41176,3.00416 -0.14462,9.57381 -1.28121,15.12807 -2.44894,11.96751 -2.61813,22.00464 -0.5658,33.56784 3.0818,17.36351 3.0949,18.59253 0.22586,21.18896 -3.6193,3.27542 -21.56664,4.1626 -26.60056,1.31494 z"
       id="path3422"
       inkscape:connector-curvature="0" />
    <path
       style="fill:#4361ee"
       d="m 210.89368,819.34054 c -2.11577,-1.19501 -3.76839,-3.4016 -4.21315,-5.62539 -0.92199,-4.60998 -2.24197,-5.68006 -11.25604,-9.12524 -6.29071,-2.4043 -7.68818,-3.55546 -10.11199,-8.32975 -5.4345,-10.70455 -2.70875,-31.05181 4.69023,-35.01161 1.72102,-0.92107 4.9907,-1.14021 8.92958,-0.59848 7.37884,1.01485 10.37973,-0.95301 12.29395,-8.06192 0.66865,-2.48316 1.46002,-20.25321 1.75859,-39.48899 0.64795,-41.7436 1.17121,-49.45561 3.85725,-56.84916 1.12395,-3.09375 2.88754,-11.25 3.9191,-18.125 1.03158,-6.875 2.61209,-13.62914 3.51228,-15.00919 1.42372,-2.1827 1.09147,-3.64657 -2.5533,-11.25 -2.30449,-4.80745 -4.19678,-10.46065 -4.20508,-12.56268 -0.0125,-3.0689 -1.06404,-4.56124 -5.33915,-7.57462 -5.03188,-3.54678 -13.42595,-16.42159 -13.42595,-20.59266 0,-0.90156 2.47581,-3.97794 5.50181,-6.83639 7.7772,-7.34657 9.51484,-11.17675 8.20073,-18.07632 -1.88128,-9.87744 2.39622,-29.03423 6.86602,-30.74945 1.06229,-0.40764 1.93144,-1.29728 1.93144,-1.97696 0,-0.67969 1.07544,-2.7461 2.38985,-4.59204 2.03782,-2.86186 2.21924,-4.26945 1.2316,-9.55603 -0.63704,-3.40988 -0.78226,-7.04891 -0.32274,-8.08672 0.45953,-1.03781 0.71898,-2.84014 0.57656,-4.00515 -0.54768,-4.48023 2.81539,-13.06655 6.88013,-17.56573 4.89796,-5.42145 4.90889,-5.47537 2.20721,-10.89101 -1.94271,-3.89425 -1.899,-4.42141 0.94065,-11.34372 2.90846,-7.09009 2.94779,-7.67813 1.6834,-25.1705 -0.71205,-9.85097 -1.97909,-19.13948 -2.81565,-20.64115 -0.83655,-1.50168 -1.52101,-5.35799 -1.52101,-8.56957 0,-9.7322 -5.91598,-29.14939 -7.90206,-25.93584 -0.4236,0.68542 -2.24656,5.40634 -4.05103,10.49097 -3.12196,8.7971 -15.56247,28.92792 -25.08802,40.5966 -2.29065,2.80602 -6.96265,6.62462 -10.38224,8.4858 l -6.21744,3.38395 -15.9921,-7.65513 c -8.79566,-4.21031 -18.89471,-9.83711 -22.44234,-12.50401 -6.3054,-4.74003 -6.51587,-4.80004 -9.375,-2.67273 -3.95317,2.94134 -8.19462,4.86218 -14.17477,6.41937 -17.247268,4.49107 -36.680098,-5.06933 -45.23248,-22.2531 -3.575068,-7.18317 -3.188193,-25.18588 0.711464,-33.10705 12.997672,-26.40155 50.312006,-29.55448 67.584376,-5.71065 5.03268,6.94741 7.99953,17.60503 7.16888,25.75227 -0.77994,7.64966 -0.49802,7.952 10.06138,10.78988 12.284,3.30136 13.30293,3.03982 19.64694,-5.04312 12.94733,-16.49622 16.97324,-23.58347 20.1592,-35.48842 2.41843,-9.03683 4.64151,-13.89948 10.11615,-22.12734 7.82256,-11.75659 12.26199,-14.68082 23.53409,-15.50186 3.4375,-0.25039 7.09375,-0.99834 8.125,-1.66213 4.201,-2.70406 7.03381,-4.30578 10,-5.65418 9.20589,-4.18493 11.96082,-5.64739 12.79336,-6.79143 1.46939,-2.01917 1.14821,-24.38696 -0.35017,-24.38696 -0.71875,0 -2.6875,-1.38069 -4.375,-3.06819 -3.77455,-3.77454 -4.24159,-11.83007 -0.88069,-15.1903 1.27399,-1.27372 2.26744,-4.31257 2.37892,-7.27679 0.34479,-9.16742 3.05147,-14.61047 9.80858,-19.72476 15.81261,-11.96816 33.17936,-10.62559 41.1519,3.18133 4.86384,8.42323 5.50341,12.85165 4.3731,30.2796 -0.87481,13.4885 -1.425,16.39251 -3.41088,18.0034 -1.3023,1.05638 -3.28861,4.3065 -4.41405,7.22246 l -2.04622,5.30175 4.67308,1.9859 c 2.57018,1.09225 6.49218,2.29421 8.71556,2.67105 2.22336,0.37684 4.68286,1.45677 5.46555,2.39985 0.78268,0.94309 3.0085,1.7147 4.94625,1.7147 1.93773,0 3.87081,0.5625 4.29571,1.25 0.4249,0.6875 1.79889,1.25 3.05331,1.25 1.25444,0 4.21413,2.13997 6.5771,4.75551 2.36298,2.61553 6.09421,5.50023 8.29165,6.41043 7.02049,2.90799 16.065,14.1518 18.97633,23.59071 1.41962,4.60259 5.33884,12.5871 8.70936,17.74335 3.37053,5.15625 7.84865,13.22798 9.9514,17.93718 2.10274,4.70918 4.94653,10.13977 6.31951,12.06796 1.37299,1.92818 2.51423,4.54395 2.53609,5.81282 0.0219,1.26888 0.86563,3.39893 1.875,4.73345 2.6944,3.56231 2.34988,14.78944 -0.63329,20.63691 -3.03165,5.94254 -18.1174,16.43654 -28.19526,19.61332 -6.6304,2.09005 -6.94509,2.39115 -8.70996,8.33415 -1.00708,3.39116 -3.24745,8.7 -4.97864,11.79742 -3.462,6.1942 -4.08062,13.3782 -1.48337,17.22615 2.3286,3.44994 6.58803,17.99553 8.95797,30.59064 1.09958,5.84375 2.88899,13.00755 3.97649,15.91956 2.60996,6.98879 1.34055,22.66713 -2.81758,34.79941 -2.02853,5.91874 -3.04663,11.70705 -3.07806,17.5 -0.0258,4.76082 -0.75541,14.40239 -1.62134,21.42573 -1.39816,11.34034 -1.35792,12.81595 0.35945,13.18296 3.47454,0.74253 8.72789,-4.21571 9.52454,-8.98947 1.56484,-9.37699 3.07193,-12.32119 7.34493,-14.34886 5.3119,-2.52067 8.59073,-2.50933 13.9806,0.0484 6.40028,3.03714 10.94165,11.59361 11.34882,21.38256 0.33158,7.97185 3.9276,17.42875 7.39761,19.4544 2.50307,1.46119 5.27273,7.36817 6.80515,14.51365 2.87769,13.41817 -3.63932,36.7531 -11.38278,40.7574 -9.45938,4.89163 -15.6762,0.28885 -19.93484,-14.75925 -3.27483,-11.57177 -7.21573,-19.37602 -11.05436,-21.89119 -2.95133,-1.93378 -3.15743,-1.85222 -6.80293,2.69198 -2.06766,2.5774 -5.92642,5.79173 -8.57501,7.14294 -2.6486,1.35122 -8.1851,4.63455 -12.30333,7.29629 -10.39971,6.72165 -13.08538,7.20405 -18.63192,3.34663 -9.45614,-6.5764 -16.25548,-14.22726 -17.01643,-19.14751 -0.39983,-2.58531 -1.55142,-6.29302 -2.55908,-8.23936 -1.00768,-1.94634 -1.83213,-5.09354 -1.83213,-6.99376 0,-1.90024 -1.125,-4.47308 -2.5,-5.71744 -1.375,-1.24436 -2.49852,-3.72216 -2.49674,-5.50624 10e-4,-1.78406 -0.91858,-7.18126 -2.0453,-11.99376 -1.67462,-7.15274 -2.85673,-9.45463 -6.4758,-12.61003 l -4.42722,-3.86001 -5.4302,10.73501 c -2.9866,5.90427 -6.77414,11.86003 -8.41674,13.23503 -1.64261,1.375 -3.63647,5.03125 -4.43081,8.125 -2.14915,8.3704 -4.16848,13.75 -5.16128,13.75 -0.48502,0 -0.6167,1.01396 -0.29262,2.25326 0.32409,1.23929 -1.48775,6.16116 -4.02629,10.9375 -4.58746,8.63144 -4.61772,8.78748 -4.97701,25.66349 -0.19881,9.33857 -1.02551,19.44529 -1.83711,22.45935 -1.64367,6.10407 -6.19029,16.44337 -7.69037,17.4883 -2.19551,1.52936 -7.50193,28.10586 -6.85315,34.3231 0.36957,3.54152 -0.20056,10.31271 -1.3156,15.625 -2.41148,11.48885 -2.57425,21.61957 -0.53217,33.125 3.0818,17.36351 3.0949,18.59252 0.22586,21.18896 -3.65057,3.30371 -21.56666,4.16116 -26.67377,1.27658 z"
       id="path3420"
       inkscape:connector-curvature="0" />
    <path
       style="fill:#4361ee"
       d="m 210.89368,819.34054 c -2.11577,-1.19501 -3.76839,-3.4016 -4.21315,-5.62539 -0.92199,-4.60998 -2.24197,-5.68006 -11.25604,-9.12524 -6.29071,-2.4043 -7.68818,-3.55546 -10.11199,-8.32975 -4.90671,-9.66492 -3.3594,-27.0769 2.9685,-33.4048 2.73288,-2.73287 3.7573,-2.98154 9.19949,-2.23305 14.20583,1.95381 15.07737,-0.56562 15.77931,-45.61511 0.73021,-46.86302 0.97697,-50.60857 3.99465,-60.6322 1.44883,-4.8125 3.26809,-13.25 4.04281,-18.75 0.77471,-5.5 2.16249,-11.17943 3.08395,-12.62094 1.47339,-2.30492 1.22695,-3.50997 -2.0439,-9.99447 -2.04561,-4.05545 -4.03905,-9.70644 -4.42986,-12.55778 -0.58779,-4.28837 -1.60441,-5.81425 -5.88306,-8.83014 -4.99602,-3.52149 -13.27439,-16.42008 -13.27439,-20.68286 0,-1.00993 2.27245,-3.7437 5.04989,-6.07503 8.34207,-7.00217 10.16868,-10.86999 8.72601,-18.47721 C 210.54057,535.91802 215.61761,515 220.14376,515 c 0.60843,0 1.10624,-0.73769 1.10624,-1.6393 0,-0.90161 1.11661,-2.83784 2.48135,-4.30271 2.19319,-2.35411 2.33979,-3.40988 1.26239,-9.09103 -0.79769,-4.20617 -0.79279,-7.22391 0.0141,-8.73172 0.67823,-1.26728 0.91635,-3.12968 0.52916,-4.13867 -1.25707,-3.27586 1.90709,-11.79319 6.36204,-17.12542 4.9572,-5.93338 4.97103,-5.99009 2.58375,-10.59156 -2.03622,-3.92483 -1.68619,-6.97723 1.6562,-14.44269 1.31455,-2.93614 2.1931,-6.36124 1.95235,-7.61135 -0.24075,-1.2501 -0.83785,-9.17539 -1.32691,-17.61174 -0.48905,-8.43635 -1.58241,-16.46381 -2.42969,-17.83881 -0.84728,-1.375 -1.85791,-7.38395 -2.24586,-13.35321 -0.52273,-8.04333 -1.49976,-12.41224 -3.77379,-16.875 -3.02257,-5.93175 -3.08775,-5.97507 -4.35911,-2.89679 -8.12287,19.6674 -10.89206,24.82439 -20.47231,38.125 -7.90868,10.97991 -12.39311,15.98825 -16.73261,18.68741 -3.26058,2.02808 -6.83077,3.61944 -7.93377,3.53635 -3.87103,-0.2916 -32.01263,-14.38416 -38.60953,-19.33462 l -6.6672,-5.00322 -2.7078,2.51692 c -4.33933,4.03341 -17.97231,8.05107 -25.28179,7.45057 -20.188763,-1.65857 -36.7331,-18.97848 -36.755326,-38.47841 -0.02451,-21.50711 14.800732,-38.02217 35.632866,-39.69437 23.21014,-1.86309 42.34995,15.85798 42.50734,39.35648 0.0335,4.99653 0.59596,9.56922 1.25,10.16155 2.17202,1.96711 18.85163,5.56451 21.92004,4.72764 1.98012,-0.54006 6.43985,-5.65901 12.95921,-14.87486 9.66299,-13.6597 10.9424,-16.30004 15.0627,-31.08505 2.13569,-7.66359 9.00476,-19.73828 15.11364,-26.56724 3.99829,-4.46959 9.54743,-6.60668 18.63356,-7.17615 2.75,-0.17235 5.76311,-0.88983 6.69581,-1.59439 2.36829,-1.78899 6.4937,-4.14984 10.17919,-5.82522 9.20589,-4.18493 11.96082,-5.64739 12.79336,-6.79143 0.5051,-0.69407 0.92698,-6.47901 0.9375,-12.8554 0.0181,-11.01841 -0.12617,-11.64869 -2.91065,-12.70735 -5.34419,-2.03185 -7.63149,-15.13666 -3.08592,-17.68049 1.26285,-0.70672 1.98567,-2.98793 2.05593,-6.48856 0.18902,-9.41661 2.74473,-14.7352 9.58478,-19.94642 18.77002,-14.30033 38.67129,-9.07028 44.95671,11.81461 2.45983,8.17336 0.3446,37.07982 -2.90698,39.72665 -2.01213,1.63789 -7.14418,12.47204 -6.16454,13.0138 1.90877,1.05557 13.32302,4.49717 14.89926,4.49239 1.11894,-0.004 2.73469,0.83756 3.59055,1.86881 0.85586,1.03125 2.89349,1.875 4.52805,1.875 1.63457,0 2.97195,0.43981 2.97195,0.97736 0,0.53755 1.54687,1.09311 3.4375,1.23459 2.13321,0.15961 5.12615,2.04164 7.888,4.96014 2.44777,2.5866 6.58555,5.82791 9.19506,7.20291 7.92183,4.17416 15.36451,13.51717 18.2688,22.93334 1.41084,4.57416 5.37976,12.60703 8.81983,17.85083 3.44007,5.24379 7.97366,13.62549 10.07465,18.62598 2.10099,5.0005 4.88786,10.23806 6.19306,11.63904 1.30521,1.40096 2.3731,3.50185 2.3731,4.66862 0,1.16679 0.84029,3.73259 1.8673,5.7018 2.86563,5.4946 2.39365,15.21519 -1.01193,20.84088 -3.60121,5.94887 -18.50041,16.24442 -27.70868,19.14707 -6.57981,2.0741 -6.91989,2.3994 -8.88589,8.49954 -1.12432,3.4886 -3.3867,8.80437 -5.02751,11.81284 -3.30722,6.06387 -3.86588,13.2912 -1.31906,17.06442 2.3286,3.44994 6.58803,17.99553 8.95797,30.59064 1.09958,5.84375 2.90436,13.04781 4.01065,16.00904 1.71888,4.60093 1.81676,7.17522 0.67299,17.69901 -0.76465,7.03546 -2.45683,14.84324 -3.94715,18.21236 -1.8559,4.19558 -2.63625,8.64706 -2.7042,15.42599 -0.0525,5.24072 -0.76504,15.26294 -1.58336,22.27157 -1.32573,11.35443 -1.27302,12.79917 0.4838,13.25858 3.93506,1.02904 8.57583,-4.40663 9.95042,-11.65474 1.53201,-8.07831 5.1298,-12.24522 11.4596,-13.27241 10.8853,-1.76644 19.75298,8.12104 20.52559,22.88606 0.42187,8.06231 4.41295,19.16454 6.88934,19.16454 2.03512,0 6.01568,7.8507 7.42665,14.64729 2.8695,13.82231 -3.53344,36.9581 -11.3465,40.99838 -9.20028,4.75764 -15.71413,0.0149 -19.90884,-14.49586 -3.88148,-13.42707 -4.91463,-15.68648 -9.42414,-20.60974 l -4.05689,-4.42907 -4.05257,5.11679 c -2.22892,2.81423 -6.35014,6.28892 -9.15828,7.72152 -2.80813,1.43261 -8.04123,4.55383 -11.6291,6.93603 -9.43408,6.26388 -14.33956,7.09786 -19.4729,3.31061 -9.55563,-7.04993 -15.91575,-14.30139 -16.63385,-18.96502 -0.39007,-2.53327 -1.53367,-6.19839 -2.54133,-8.14473 -1.00768,-1.94634 -1.83213,-4.9958 -1.83213,-6.77658 0,-1.78077 -0.88809,-4.21909 -1.97353,-5.41848 -1.08543,-1.1994 -2.1281,-3.49369 -2.31703,-5.09843 -0.18894,-1.60473 -1.33374,-7.13646 -2.54399,-12.29271 -1.82514,-7.77592 -2.95721,-10.04384 -6.63711,-13.29624 l -4.43665,-3.92125 -5.48823,10.79625 c -3.01851,5.93793 -6.81432,11.92124 -8.43511,13.29624 -1.6208,1.375 -3.59683,5.03125 -4.39116,8.125 -2.14915,8.3704 -4.16848,13.75 -5.16128,13.75 -0.48502,0 -0.62411,0.98563 -0.30909,2.19028 0.31502,1.20465 -1.70396,6.68902 -4.48661,12.1875 l -5.05939,9.99722 -0.005,16.60194 c -0.006,17.96434 -1.98878,26.89746 -8.05899,36.30604 -1.62946,2.52561 -3.94204,9.37327 -5.13904,15.21702 -1.197,5.84375 -2.56699,11.07051 -3.04441,11.61503 -0.47742,0.54452 -0.40404,3.94886 0.16306,7.5652 0.73699,4.69973 0.45224,9.40888 -0.99831,16.50997 -2.46859,12.08489 -2.64282,22.0971 -0.58614,33.6848 3.0818,17.36351 3.0949,18.59253 0.22586,21.18896 -3.65057,3.30372 -21.56666,4.16117 -26.67377,1.27658 z"
       id="path3418"
       inkscape:connector-curvature="0" />
  </g>
</svg>
